<mxfile host="app.diagrams.net" agent="Mozilla/5.0 (Windows NT 10.0; Win64; x64) AppleWebKit/537.36 (KHTML, like Gecko) Chrome/135.0.0.0 Safari/537.36" version="26.1.3">
  <diagram name="Page-1" id="zw5ZYqH4k-ZMGuOaGW6w">
    <mxGraphModel grid="1" page="1" gridSize="10" guides="1" tooltips="1" connect="1" arrows="1" fold="1" pageScale="1" pageWidth="827" pageHeight="1169" math="0" shadow="0">
      <root>
        <mxCell id="0" />
        <mxCell id="1" parent="0" />
        <mxCell id="SL9z8HNn9jCXiQ2cdO7W-7" style="edgeStyle=orthogonalEdgeStyle;rounded=0;orthogonalLoop=1;jettySize=auto;html=1;endArrow=none;startFill=0;" edge="1" parent="1" source="LStnReiiz1BPzTA0XUoR-7" target="SL9z8HNn9jCXiQ2cdO7W-1">
          <mxGeometry relative="1" as="geometry" />
        </mxCell>
        <mxCell id="LStnReiiz1BPzTA0XUoR-7" value="User" style="swimlane;fontStyle=1;align=center;verticalAlign=top;childLayout=stackLayout;horizontal=1;startSize=26;horizontalStack=0;resizeParent=1;resizeParentMax=0;resizeLast=0;collapsible=1;marginBottom=0;whiteSpace=wrap;html=1;" vertex="1" parent="1">
          <mxGeometry x="-190" y="-163" width="160" height="290" as="geometry" />
        </mxCell>
        <mxCell id="LStnReiiz1BPzTA0XUoR-8" value="-firstName: String&lt;div&gt;-lastName: String&lt;/div&gt;&lt;div&gt;-email: String&lt;/div&gt;&lt;div&gt;-userId: int&lt;/div&gt;&lt;div&gt;-password: String&lt;/div&gt;" style="text;strokeColor=none;fillColor=none;align=left;verticalAlign=top;spacingLeft=4;spacingRight=4;overflow=hidden;rotatable=0;points=[[0,0.5],[1,0.5]];portConstraint=eastwest;whiteSpace=wrap;html=1;" vertex="1" parent="LStnReiiz1BPzTA0XUoR-7">
          <mxGeometry y="26" width="160" height="78" as="geometry" />
        </mxCell>
        <mxCell id="LStnReiiz1BPzTA0XUoR-9" value="" style="line;strokeWidth=1;fillColor=none;align=left;verticalAlign=middle;spacingTop=-1;spacingLeft=3;spacingRight=3;rotatable=0;labelPosition=right;points=[];portConstraint=eastwest;strokeColor=inherit;" vertex="1" parent="LStnReiiz1BPzTA0XUoR-7">
          <mxGeometry y="104" width="160" height="8" as="geometry" />
        </mxCell>
        <mxCell id="LStnReiiz1BPzTA0XUoR-10" value="+getFirstName(): String&lt;div&gt;+setF&lt;span style=&quot;background-color: transparent; color: light-dark(rgb(0, 0, 0), rgb(255, 255, 255));&quot;&gt;irstName(String): void&lt;/span&gt;&lt;/div&gt;&lt;div&gt;+getLastName(): String&lt;/div&gt;&lt;div&gt;+setLastName(String): void&lt;/div&gt;&lt;div&gt;+getEmail(): String&lt;/div&gt;&lt;div&gt;+setEmail(String): void&lt;/div&gt;&lt;div&gt;+getUserId(): int&lt;/div&gt;&lt;div&gt;+setUserId(int): void&lt;/div&gt;&lt;div&gt;+getPassword(): String&lt;/div&gt;&lt;div&gt;+setPassword(String): void&lt;/div&gt;&lt;div&gt;+toString(): String&lt;/div&gt;" style="text;strokeColor=none;fillColor=none;align=left;verticalAlign=top;spacingLeft=4;spacingRight=4;overflow=hidden;rotatable=0;points=[[0,0.5],[1,0.5]];portConstraint=eastwest;whiteSpace=wrap;html=1;" vertex="1" parent="LStnReiiz1BPzTA0XUoR-7">
          <mxGeometry y="112" width="160" height="178" as="geometry" />
        </mxCell>
        <mxCell id="LStnReiiz1BPzTA0XUoR-11" value="Wishlist" style="swimlane;fontStyle=1;align=center;verticalAlign=top;childLayout=stackLayout;horizontal=1;startSize=26;horizontalStack=0;resizeParent=1;resizeParentMax=0;resizeLast=0;collapsible=1;marginBottom=0;whiteSpace=wrap;html=1;" vertex="1" parent="1">
          <mxGeometry x="80" y="110" width="210" height="230" as="geometry" />
        </mxCell>
        <mxCell id="LStnReiiz1BPzTA0XUoR-12" value="-wishlistDescription: String&lt;br&gt;-wishlistTitle: String&lt;div&gt;-wishes: List&amp;lt;wish&amp;gt;&lt;/div&gt;&lt;div&gt;-wishlistId: int&lt;/div&gt;&lt;div&gt;-userId: int&lt;/div&gt;" style="text;strokeColor=none;fillColor=none;align=left;verticalAlign=top;spacingLeft=4;spacingRight=4;overflow=hidden;rotatable=0;points=[[0,0.5],[1,0.5]];portConstraint=eastwest;whiteSpace=wrap;html=1;" vertex="1" parent="LStnReiiz1BPzTA0XUoR-11">
          <mxGeometry y="26" width="210" height="84" as="geometry" />
        </mxCell>
        <mxCell id="LStnReiiz1BPzTA0XUoR-13" value="" style="line;strokeWidth=1;fillColor=none;align=left;verticalAlign=middle;spacingTop=-1;spacingLeft=3;spacingRight=3;rotatable=0;labelPosition=right;points=[];portConstraint=eastwest;strokeColor=inherit;" vertex="1" parent="LStnReiiz1BPzTA0XUoR-11">
          <mxGeometry y="110" width="210" height="8" as="geometry" />
        </mxCell>
        <mxCell id="LStnReiiz1BPzTA0XUoR-14" value="+getWishlistDescription(): String&lt;div&gt;+setWishlistDescription(String): void&lt;/div&gt;&lt;div&gt;+getWishlistName(): String&lt;/div&gt;&lt;div&gt;+setWishlistName(String): void&lt;/div&gt;&lt;div&gt;+getWishes(): List&amp;lt;Wish&amp;gt;&lt;/div&gt;&lt;div&gt;+addWish(Wishlist, Wish): void&lt;/div&gt;&lt;div&gt;+getWishlistOwnerId(): int&lt;/div&gt;" style="text;strokeColor=none;fillColor=none;align=left;verticalAlign=top;spacingLeft=4;spacingRight=4;overflow=hidden;rotatable=0;points=[[0,0.5],[1,0.5]];portConstraint=eastwest;whiteSpace=wrap;html=1;" vertex="1" parent="LStnReiiz1BPzTA0XUoR-11">
          <mxGeometry y="118" width="210" height="112" as="geometry" />
        </mxCell>
        <mxCell id="LStnReiiz1BPzTA0XUoR-19" style="edgeStyle=orthogonalEdgeStyle;rounded=0;orthogonalLoop=1;jettySize=auto;html=1;entryX=0.5;entryY=0;entryDx=0;entryDy=0;endArrow=diamond;startFill=0;startArrow=none;startSize=25;endFill=0;endSize=25;" edge="1" parent="1" source="LStnReiiz1BPzTA0XUoR-15" target="LStnReiiz1BPzTA0XUoR-11">
          <mxGeometry relative="1" as="geometry" />
        </mxCell>
        <mxCell id="LStnReiiz1BPzTA0XUoR-15" value="Wish" style="swimlane;fontStyle=1;align=center;verticalAlign=top;childLayout=stackLayout;horizontal=1;startSize=26;horizontalStack=0;resizeParent=1;resizeParentMax=0;resizeLast=0;collapsible=1;marginBottom=0;whiteSpace=wrap;html=1;" vertex="1" parent="1">
          <mxGeometry x="75" y="-330" width="220" height="380" as="geometry" />
        </mxCell>
        <mxCell id="LStnReiiz1BPzTA0XUoR-16" value="-wishTitle: String&lt;div&gt;-wishDescription: String&lt;/div&gt;&lt;div&gt;-wishId: int&lt;/div&gt;&lt;div&gt;-wishPrice: BigDecimal&lt;/div&gt;&lt;div&gt;-productUrl: String&lt;/div&gt;&lt;div&gt;-imageUrl: String&lt;/div&gt;&lt;div&gt;-wishlistId: int&lt;/div&gt;" style="text;strokeColor=none;fillColor=none;align=left;verticalAlign=top;spacingLeft=4;spacingRight=4;overflow=hidden;rotatable=0;points=[[0,0.5],[1,0.5]];portConstraint=eastwest;whiteSpace=wrap;html=1;" vertex="1" parent="LStnReiiz1BPzTA0XUoR-15">
          <mxGeometry y="26" width="220" height="114" as="geometry" />
        </mxCell>
        <mxCell id="LStnReiiz1BPzTA0XUoR-17" value="" style="line;strokeWidth=1;fillColor=none;align=left;verticalAlign=middle;spacingTop=-1;spacingLeft=3;spacingRight=3;rotatable=0;labelPosition=right;points=[];portConstraint=eastwest;strokeColor=inherit;" vertex="1" parent="LStnReiiz1BPzTA0XUoR-15">
          <mxGeometry y="140" width="220" height="8" as="geometry" />
        </mxCell>
        <mxCell id="LStnReiiz1BPzTA0XUoR-18" value="+getwishTitle(): String&lt;div&gt;+setwishTitle(String): void&lt;/div&gt;&lt;div&gt;+getWishDescription(): String&lt;/div&gt;&lt;div&gt;+setWishDescription(String): void&lt;br&gt;+getWishId(): int&lt;/div&gt;&lt;div&gt;+setWishId(int): void&lt;/div&gt;&lt;div&gt;+getWishPride(): BigDecimal&lt;/div&gt;&lt;div&gt;+setWishPrice(BigDecimal): void&lt;/div&gt;&lt;div&gt;+getProductUrl(): String&lt;/div&gt;&lt;div&gt;+setProductUrl(String): void&lt;/div&gt;&lt;div&gt;&lt;div&gt;+getImagetUrl(): String&lt;/div&gt;&lt;div&gt;+setImageUrl(String): void&lt;/div&gt;&lt;/div&gt;&lt;div&gt;+getWishlistId(): int&lt;/div&gt;&lt;div&gt;+setWishlistId(int): void&lt;/div&gt;&lt;div&gt;+toString(): String&lt;/div&gt;" style="text;strokeColor=none;fillColor=none;align=left;verticalAlign=top;spacingLeft=4;spacingRight=4;overflow=hidden;rotatable=0;points=[[0,0.5],[1,0.5]];portConstraint=eastwest;whiteSpace=wrap;html=1;" vertex="1" parent="LStnReiiz1BPzTA0XUoR-15">
          <mxGeometry y="148" width="220" height="232" as="geometry" />
        </mxCell>
        <mxCell id="LStnReiiz1BPzTA0XUoR-20" style="edgeStyle=orthogonalEdgeStyle;rounded=0;orthogonalLoop=1;jettySize=auto;html=1;entryX=0;entryY=0.5;entryDx=0;entryDy=0;endArrow=none;startFill=0;endFill=0;endSize=25;startArrow=diamond;startSize=25;" edge="1" parent="1" source="LStnReiiz1BPzTA0XUoR-8" target="LStnReiiz1BPzTA0XUoR-12">
          <mxGeometry relative="1" as="geometry" />
        </mxCell>
        <mxCell id="LStnReiiz1BPzTA0XUoR-47" style="edgeStyle=orthogonalEdgeStyle;rounded=0;orthogonalLoop=1;jettySize=auto;html=1;entryX=0;entryY=0.5;entryDx=0;entryDy=0;endArrow=none;startFill=0;" edge="1" parent="1" source="LStnReiiz1BPzTA0XUoR-21" target="LStnReiiz1BPzTA0XUoR-30">
          <mxGeometry relative="1" as="geometry" />
        </mxCell>
        <mxCell id="LStnReiiz1BPzTA0XUoR-21" value="UserController" style="swimlane;fontStyle=1;align=center;verticalAlign=top;childLayout=stackLayout;horizontal=1;startSize=26;horizontalStack=0;resizeParent=1;resizeParentMax=0;resizeLast=0;collapsible=1;marginBottom=0;whiteSpace=wrap;html=1;" vertex="1" parent="1">
          <mxGeometry x="-460" y="355" width="160" height="140" as="geometry" />
        </mxCell>
        <mxCell id="LStnReiiz1BPzTA0XUoR-22" value="-userService: UserService" style="text;strokeColor=none;fillColor=none;align=left;verticalAlign=top;spacingLeft=4;spacingRight=4;overflow=hidden;rotatable=0;points=[[0,0.5],[1,0.5]];portConstraint=eastwest;whiteSpace=wrap;html=1;" vertex="1" parent="LStnReiiz1BPzTA0XUoR-21">
          <mxGeometry y="26" width="160" height="26" as="geometry" />
        </mxCell>
        <mxCell id="LStnReiiz1BPzTA0XUoR-23" value="" style="line;strokeWidth=1;fillColor=none;align=left;verticalAlign=middle;spacingTop=-1;spacingLeft=3;spacingRight=3;rotatable=0;labelPosition=right;points=[];portConstraint=eastwest;strokeColor=inherit;" vertex="1" parent="LStnReiiz1BPzTA0XUoR-21">
          <mxGeometry y="52" width="160" height="8" as="geometry" />
        </mxCell>
        <mxCell id="LStnReiiz1BPzTA0XUoR-24" value="+updateUser(): String&lt;div&gt;+deleteUser(): String&lt;/div&gt;&lt;div&gt;+addUser(): String&lt;/div&gt;&lt;div&gt;+saveUser(): String&lt;/div&gt;&lt;div&gt;+getUser(): String&lt;/div&gt;" style="text;strokeColor=none;fillColor=none;align=left;verticalAlign=top;spacingLeft=4;spacingRight=4;overflow=hidden;rotatable=0;points=[[0,0.5],[1,0.5]];portConstraint=eastwest;whiteSpace=wrap;html=1;" vertex="1" parent="LStnReiiz1BPzTA0XUoR-21">
          <mxGeometry y="60" width="160" height="80" as="geometry" />
        </mxCell>
        <mxCell id="LStnReiiz1BPzTA0XUoR-45" style="edgeStyle=orthogonalEdgeStyle;rounded=0;orthogonalLoop=1;jettySize=auto;html=1;entryX=0;entryY=0.5;entryDx=0;entryDy=0;endArrow=none;startFill=0;" edge="1" parent="1" source="Tv-DqZOyCQz21rvWjg07-6" target="LStnReiiz1BPzTA0XUoR-35">
          <mxGeometry relative="1" as="geometry" />
        </mxCell>
        <mxCell id="LStnReiiz1BPzTA0XUoR-29" value="UserService&lt;div&gt;&lt;br&gt;&lt;/div&gt;" style="swimlane;fontStyle=1;align=center;verticalAlign=top;childLayout=stackLayout;horizontal=1;startSize=26;horizontalStack=0;resizeParent=1;resizeParentMax=0;resizeLast=0;collapsible=1;marginBottom=0;whiteSpace=wrap;html=1;" vertex="1" parent="1">
          <mxGeometry x="-190" y="377" width="160" height="104" as="geometry" />
        </mxCell>
        <mxCell id="LStnReiiz1BPzTA0XUoR-30" value="-userRepo: UserRepo" style="text;strokeColor=none;fillColor=none;align=left;verticalAlign=top;spacingLeft=4;spacingRight=4;overflow=hidden;rotatable=0;points=[[0,0.5],[1,0.5]];portConstraint=eastwest;whiteSpace=wrap;html=1;" vertex="1" parent="LStnReiiz1BPzTA0XUoR-29">
          <mxGeometry y="26" width="160" height="44" as="geometry" />
        </mxCell>
        <mxCell id="LStnReiiz1BPzTA0XUoR-31" value="" style="line;strokeWidth=1;fillColor=none;align=left;verticalAlign=middle;spacingTop=-1;spacingLeft=3;spacingRight=3;rotatable=0;labelPosition=right;points=[];portConstraint=eastwest;strokeColor=inherit;" vertex="1" parent="LStnReiiz1BPzTA0XUoR-29">
          <mxGeometry y="70" width="160" height="8" as="geometry" />
        </mxCell>
        <mxCell id="LStnReiiz1BPzTA0XUoR-32" value="+ method(type): type" style="text;strokeColor=none;fillColor=none;align=left;verticalAlign=top;spacingLeft=4;spacingRight=4;overflow=hidden;rotatable=0;points=[[0,0.5],[1,0.5]];portConstraint=eastwest;whiteSpace=wrap;html=1;" vertex="1" parent="LStnReiiz1BPzTA0XUoR-29">
          <mxGeometry y="78" width="160" height="26" as="geometry" />
        </mxCell>
        <mxCell id="LStnReiiz1BPzTA0XUoR-33" value="" style="image;html=1;image=img/lib/clip_art/computers/Database_128x128.png" vertex="1" parent="1">
          <mxGeometry x="430" y="393" width="80" height="80" as="geometry" />
        </mxCell>
        <mxCell id="LStnReiiz1BPzTA0XUoR-43" style="edgeStyle=orthogonalEdgeStyle;rounded=0;orthogonalLoop=1;jettySize=auto;html=1;endArrow=none;startFill=0;exitX=1;exitY=0.5;exitDx=0;exitDy=0;" edge="1" parent="1" source="LStnReiiz1BPzTA0XUoR-35" target="LStnReiiz1BPzTA0XUoR-33">
          <mxGeometry relative="1" as="geometry">
            <Array as="points">
              <mxPoint x="285" y="433" />
            </Array>
          </mxGeometry>
        </mxCell>
        <mxCell id="LStnReiiz1BPzTA0XUoR-50" style="edgeStyle=orthogonalEdgeStyle;rounded=0;orthogonalLoop=1;jettySize=auto;html=1;endArrow=none;startFill=0;" edge="1" parent="1" source="LStnReiiz1BPzTA0XUoR-34" target="LStnReiiz1BPzTA0XUoR-11">
          <mxGeometry relative="1" as="geometry" />
        </mxCell>
        <mxCell id="LStnReiiz1BPzTA0XUoR-34" value="WishlistRepo&lt;div&gt;&lt;br&gt;&lt;/div&gt;" style="swimlane;fontStyle=1;align=center;verticalAlign=top;childLayout=stackLayout;horizontal=1;startSize=26;horizontalStack=0;resizeParent=1;resizeParentMax=0;resizeLast=0;collapsible=1;marginBottom=0;whiteSpace=wrap;html=1;" vertex="1" parent="1">
          <mxGeometry x="60" y="386" width="250" height="150" as="geometry" />
        </mxCell>
        <mxCell id="LStnReiiz1BPzTA0XUoR-35" value="-mapOfWishlists: map&amp;lt;wishListId, wishlist&amp;gt;&lt;br&gt;-wishListOwnerId: int" style="text;strokeColor=none;fillColor=none;align=left;verticalAlign=top;spacingLeft=4;spacingRight=4;overflow=hidden;rotatable=0;points=[[0,0.5],[1,0.5]];portConstraint=eastwest;whiteSpace=wrap;html=1;" vertex="1" parent="LStnReiiz1BPzTA0XUoR-34">
          <mxGeometry y="26" width="250" height="34" as="geometry" />
        </mxCell>
        <mxCell id="LStnReiiz1BPzTA0XUoR-36" value="" style="line;strokeWidth=1;fillColor=none;align=left;verticalAlign=middle;spacingTop=-1;spacingLeft=3;spacingRight=3;rotatable=0;labelPosition=right;points=[];portConstraint=eastwest;strokeColor=inherit;" vertex="1" parent="LStnReiiz1BPzTA0XUoR-34">
          <mxGeometry y="60" width="250" height="8" as="geometry" />
        </mxCell>
        <mxCell id="LStnReiiz1BPzTA0XUoR-37" value="+createWishlist(Wishlist wishlist): void&lt;div&gt;+deleteWishlist(int id): Boolean&lt;/div&gt;&lt;div&gt;+updateWishlist(Wishlist wishlist): void&lt;/div&gt;&lt;div&gt;+findWishlist(int id): Wishlist&lt;/div&gt;&lt;div&gt;+getAllWishlists(): map&amp;lt;wishListId, wishlist)&amp;nbsp;&lt;br&gt;&lt;div&gt;&lt;br&gt;&lt;/div&gt;&lt;/div&gt;" style="text;strokeColor=none;fillColor=none;align=left;verticalAlign=top;spacingLeft=4;spacingRight=4;overflow=hidden;rotatable=0;points=[[0,0.5],[1,0.5]];portConstraint=eastwest;whiteSpace=wrap;html=1;" vertex="1" parent="LStnReiiz1BPzTA0XUoR-34">
          <mxGeometry y="68" width="250" height="82" as="geometry" />
        </mxCell>
        <mxCell id="LStnReiiz1BPzTA0XUoR-49" style="edgeStyle=orthogonalEdgeStyle;rounded=0;orthogonalLoop=1;jettySize=auto;html=1;entryX=0;entryY=0.5;entryDx=0;entryDy=0;endArrow=none;startFill=0;" edge="1" parent="1" source="LStnReiiz1BPzTA0XUoR-48" target="LStnReiiz1BPzTA0XUoR-22">
          <mxGeometry relative="1" as="geometry">
            <mxPoint x="-480.0000000000002" y="430" as="targetPoint" />
          </mxGeometry>
        </mxCell>
        <mxCell id="LStnReiiz1BPzTA0XUoR-48" value="" style="verticalLabelPosition=bottom;html=1;verticalAlign=top;align=center;strokeColor=none;fillColor=#00BEF2;shape=mxgraph.azure.azure_website;pointerEvents=1;" vertex="1" parent="1">
          <mxGeometry x="-630" y="369" width="50" height="50" as="geometry" />
        </mxCell>
        <mxCell id="SL9z8HNn9jCXiQ2cdO7W-6" style="edgeStyle=orthogonalEdgeStyle;rounded=0;orthogonalLoop=1;jettySize=auto;html=1;entryX=0.5;entryY=0;entryDx=0;entryDy=0;endArrow=none;startFill=0;" edge="1" parent="1" source="SL9z8HNn9jCXiQ2cdO7W-1" target="LStnReiiz1BPzTA0XUoR-29">
          <mxGeometry relative="1" as="geometry" />
        </mxCell>
        <mxCell id="SL9z8HNn9jCXiQ2cdO7W-1" value="UserRepo" style="swimlane;fontStyle=1;align=center;verticalAlign=top;childLayout=stackLayout;horizontal=1;startSize=26;horizontalStack=0;resizeParent=1;resizeParentMax=0;resizeLast=0;collapsible=1;marginBottom=0;whiteSpace=wrap;html=1;" vertex="1" parent="1">
          <mxGeometry x="-220" y="180" width="220" height="140" as="geometry" />
        </mxCell>
        <mxCell id="SL9z8HNn9jCXiQ2cdO7W-2" value="&lt;div&gt;-user: User&lt;/div&gt;" style="text;strokeColor=none;fillColor=none;align=left;verticalAlign=top;spacingLeft=4;spacingRight=4;overflow=hidden;rotatable=0;points=[[0,0.5],[1,0.5]];portConstraint=eastwest;whiteSpace=wrap;html=1;" vertex="1" parent="SL9z8HNn9jCXiQ2cdO7W-1">
          <mxGeometry y="26" width="220" height="24" as="geometry" />
        </mxCell>
        <mxCell id="SL9z8HNn9jCXiQ2cdO7W-3" value="" style="line;strokeWidth=1;fillColor=none;align=left;verticalAlign=middle;spacingTop=-1;spacingLeft=3;spacingRight=3;rotatable=0;labelPosition=right;points=[];portConstraint=eastwest;strokeColor=inherit;" vertex="1" parent="SL9z8HNn9jCXiQ2cdO7W-1">
          <mxGeometry y="50" width="220" height="8" as="geometry" />
        </mxCell>
        <mxCell id="SL9z8HNn9jCXiQ2cdO7W-4" value="+getSetOfUsers(): HashSet&amp;lt;int, user&amp;gt;&lt;div&gt;+addUserToSet(User): void&lt;/div&gt;&lt;div&gt;+deleteUser(int userId): Boolean&lt;/div&gt;&lt;div&gt;+getUserFromDB(int userId): Boolean&lt;/div&gt;&lt;div&gt;+updateUser(User user): Boolean&lt;/div&gt;" style="text;strokeColor=none;fillColor=none;align=left;verticalAlign=top;spacingLeft=4;spacingRight=4;overflow=hidden;rotatable=0;points=[[0,0.5],[1,0.5]];portConstraint=eastwest;whiteSpace=wrap;html=1;" vertex="1" parent="SL9z8HNn9jCXiQ2cdO7W-1">
          <mxGeometry y="58" width="220" height="82" as="geometry" />
        </mxCell>
        <mxCell id="SL9z8HNn9jCXiQ2cdO7W-8" style="edgeStyle=orthogonalEdgeStyle;rounded=0;orthogonalLoop=1;jettySize=auto;html=1;entryX=0.5;entryY=0;entryDx=0;entryDy=0;exitX=-0.006;exitY=0.277;exitDx=0;exitDy=0;endArrow=none;startFill=0;exitPerimeter=0;" edge="1" parent="1" source="SL9z8HNn9jCXiQ2cdO7W-4">
          <mxGeometry relative="1" as="geometry">
            <mxPoint x="-190" y="261" as="sourcePoint" />
            <mxPoint x="470" y="396" as="targetPoint" />
            <Array as="points">
              <mxPoint x="-240" y="261" />
              <mxPoint x="-240" y="-430" />
              <mxPoint x="470" y="-430" />
            </Array>
          </mxGeometry>
        </mxCell>
        <mxCell id="Tv-DqZOyCQz21rvWjg07-1" value="WishlistController" style="swimlane;fontStyle=1;align=center;verticalAlign=top;childLayout=stackLayout;horizontal=1;startSize=26;horizontalStack=0;resizeParent=1;resizeParentMax=0;resizeLast=0;collapsible=1;marginBottom=0;whiteSpace=wrap;html=1;" vertex="1" parent="1">
          <mxGeometry x="-460" y="510" width="200" height="210" as="geometry" />
        </mxCell>
        <mxCell id="Tv-DqZOyCQz21rvWjg07-2" value="-wishlistService: WishlistService&lt;div&gt;-userId: int&lt;/div&gt;" style="text;strokeColor=none;fillColor=none;align=left;verticalAlign=top;spacingLeft=4;spacingRight=4;overflow=hidden;rotatable=0;points=[[0,0.5],[1,0.5]];portConstraint=eastwest;whiteSpace=wrap;html=1;" vertex="1" parent="Tv-DqZOyCQz21rvWjg07-1">
          <mxGeometry y="26" width="200" height="44" as="geometry" />
        </mxCell>
        <mxCell id="Tv-DqZOyCQz21rvWjg07-3" value="" style="line;strokeWidth=1;fillColor=none;align=left;verticalAlign=middle;spacingTop=-1;spacingLeft=3;spacingRight=3;rotatable=0;labelPosition=right;points=[];portConstraint=eastwest;strokeColor=inherit;" vertex="1" parent="Tv-DqZOyCQz21rvWjg07-1">
          <mxGeometry y="70" width="200" height="8" as="geometry" />
        </mxCell>
        <mxCell id="Tv-DqZOyCQz21rvWjg07-4" value="&lt;div&gt;+updateWishlist(): String&lt;/div&gt;&lt;div&gt;+addWishlist(): String&lt;/div&gt;&lt;div&gt;+saveWishlist(): String&lt;/div&gt;&lt;div&gt;+deleteWishlist(): String&lt;/div&gt;&lt;div&gt;+addWishToWishlist(): String&lt;/div&gt;&lt;div&gt;+saveWishToWishlist(): String&lt;/div&gt;&lt;div&gt;+updateWishOnWishlist(): String&lt;/div&gt;&lt;div&gt;+deleteWishFromWishlist(): String&lt;/div&gt;" style="text;strokeColor=none;fillColor=none;align=left;verticalAlign=top;spacingLeft=4;spacingRight=4;overflow=hidden;rotatable=0;points=[[0,0.5],[1,0.5]];portConstraint=eastwest;whiteSpace=wrap;html=1;" vertex="1" parent="Tv-DqZOyCQz21rvWjg07-1">
          <mxGeometry y="78" width="200" height="132" as="geometry" />
        </mxCell>
        <mxCell id="Tv-DqZOyCQz21rvWjg07-5" value="WishlistService&lt;div&gt;&lt;br&gt;&lt;/div&gt;" style="swimlane;fontStyle=1;align=center;verticalAlign=top;childLayout=stackLayout;horizontal=1;startSize=26;horizontalStack=0;resizeParent=1;resizeParentMax=0;resizeLast=0;collapsible=1;marginBottom=0;whiteSpace=wrap;html=1;" vertex="1" parent="1">
          <mxGeometry x="-190" y="510" width="160" height="104" as="geometry" />
        </mxCell>
        <mxCell id="Tv-DqZOyCQz21rvWjg07-6" value="&lt;div&gt;-wishlistRepo: WishlistRepo&lt;/div&gt;" style="text;strokeColor=none;fillColor=none;align=left;verticalAlign=top;spacingLeft=4;spacingRight=4;overflow=hidden;rotatable=0;points=[[0,0.5],[1,0.5]];portConstraint=eastwest;whiteSpace=wrap;html=1;" vertex="1" parent="Tv-DqZOyCQz21rvWjg07-5">
          <mxGeometry y="26" width="160" height="44" as="geometry" />
        </mxCell>
        <mxCell id="Tv-DqZOyCQz21rvWjg07-7" value="" style="line;strokeWidth=1;fillColor=none;align=left;verticalAlign=middle;spacingTop=-1;spacingLeft=3;spacingRight=3;rotatable=0;labelPosition=right;points=[];portConstraint=eastwest;strokeColor=inherit;" vertex="1" parent="Tv-DqZOyCQz21rvWjg07-5">
          <mxGeometry y="70" width="160" height="8" as="geometry" />
        </mxCell>
        <mxCell id="Tv-DqZOyCQz21rvWjg07-8" value="+ method(type): type" style="text;strokeColor=none;fillColor=none;align=left;verticalAlign=top;spacingLeft=4;spacingRight=4;overflow=hidden;rotatable=0;points=[[0,0.5],[1,0.5]];portConstraint=eastwest;whiteSpace=wrap;html=1;" vertex="1" parent="Tv-DqZOyCQz21rvWjg07-5">
          <mxGeometry y="78" width="160" height="26" as="geometry" />
        </mxCell>
        <mxCell id="Tv-DqZOyCQz21rvWjg07-9" style="edgeStyle=orthogonalEdgeStyle;rounded=0;orthogonalLoop=1;jettySize=auto;html=1;exitX=0;exitY=0.5;exitDx=0;exitDy=0;entryX=1;entryY=0.5;entryDx=0;entryDy=0;endArrow=none;startFill=0;" edge="1" parent="1" source="Tv-DqZOyCQz21rvWjg07-6" target="Tv-DqZOyCQz21rvWjg07-2">
          <mxGeometry relative="1" as="geometry" />
        </mxCell>
        <mxCell id="Tv-DqZOyCQz21rvWjg07-10" style="edgeStyle=orthogonalEdgeStyle;rounded=0;orthogonalLoop=1;jettySize=auto;html=1;exitX=0;exitY=0.5;exitDx=0;exitDy=0;entryX=0.393;entryY=1.018;entryDx=0;entryDy=0;entryPerimeter=0;endArrow=none;startFill=0;" edge="1" parent="1" source="Tv-DqZOyCQz21rvWjg07-2" target="LStnReiiz1BPzTA0XUoR-48">
          <mxGeometry relative="1" as="geometry" />
        </mxCell>
      </root>
    </mxGraphModel>
  </diagram>
</mxfile>
